<svg version="1.1" viewBox="0.0 0.0 960.0 720.0" fill="none" stroke="none" stroke-linecap="square" stroke-miterlimit="10" xmlns:xlink="http://www.w3.org/1999/xlink" xmlns="http://www.w3.org/2000/svg"><clipPath id="p.0"><path d="m0 0l960.0 0l0 720.0l-960.0 0l0 -720.0z" clip-rule="nonzero"/></clipPath><g clip-path="url(#p.0)"><path fill="#000000" fill-opacity="0.0" d="m0 0l960.0 0l0 720.0l-960.0 0z" fill-rule="evenodd"/><path fill="#047433" d="m779.1898 79.07659l0 0c4.180542 4.1776505 4.1818237 10.952232 0.0028076172 15.131462l-504.96106 504.99164c-2.0068054 2.006958 -4.728943 3.1347046 -7.5675354 3.135254c-2.8385925 5.493164E-4 -5.561157 -1.1262207 -7.5687256 -3.1323853l-30.278214 -30.257202c-4.180542 -4.1776733 -4.1818237 -10.9522705 -0.0028533936 -15.13147l504.9611 -504.99167c4.178955 -4.179226 10.955688 -4.180504 15.13623 -0.0028533936z" fill-rule="evenodd"/><path stroke="#047433" stroke-width="1.0" stroke-linejoin="round" stroke-linecap="butt" d="m779.1898 79.07659l0 0c4.180542 4.1776505 4.1818237 10.952232 0.0028076172 15.131462l-504.96106 504.99164c-2.0068054 2.006958 -4.728943 3.1347046 -7.5675354 3.135254c-2.8385925 5.493164E-4 -5.561157 -1.1262207 -7.5687256 -3.1323853l-30.278214 -30.257202c-4.180542 -4.1776733 -4.1818237 -10.9522705 -0.0028533936 -15.13147l504.9611 -504.99167c4.178955 -4.179226 10.955688 -4.180504 15.13623 -0.0028533936z" fill-rule="evenodd"/><path fill="#047433" d="m246.78583 48.796898l0 0c4.180542 -4.1747513 10.955811 -4.1719894 15.132935 0.0061683655l504.93622 505.0585c2.0059204 2.0064697 3.1322021 4.727112 3.1310425 7.5634155c-0.001159668 2.8363647 -1.1296387 5.5560913 -3.137207 7.560913l-30.278198 30.236206c-4.180542 4.1747437 -10.955811 4.171997 -15.132935 -0.006164551l-504.93622 -505.05853c-4.1771545 -4.178154 -4.1743927 -10.949524 0.006164551 -15.124275z" fill-rule="evenodd"/><path stroke="#047433" stroke-width="1.0" stroke-linejoin="round" stroke-linecap="butt" d="m246.78583 48.796898l0 0c4.180542 -4.1747513 10.955811 -4.1719894 15.132935 0.0061683655l504.93622 505.0585c2.0059204 2.0064697 3.1322021 4.727112 3.1310425 7.5634155c-0.001159668 2.8363647 -1.1296387 5.5560913 -3.137207 7.560913l-30.278198 30.236206c-4.180542 4.1747437 -10.955811 4.171997 -15.132935 -0.006164551l-504.93622 -505.05853c-4.1771545 -4.178154 -4.1743927 -10.949524 0.006164551 -15.124275z" fill-rule="evenodd"/></g></svg>