<svg version="1.1" viewBox="0.0 0.0 960.0 720.0" fill="none" stroke="none" stroke-linecap="square" stroke-miterlimit="10" xmlns:xlink="http://www.w3.org/1999/xlink" xmlns="http://www.w3.org/2000/svg"><clipPath id="p.0"><path d="m0 0l960.0 0l0 720.0l-960.0 0l0 -720.0z" clip-rule="nonzero"/></clipPath><g clip-path="url(#p.0)"><path fill="#000000" fill-opacity="0.0" d="m0 0l960.0 0l0 720.0l-960.0 0z" fill-rule="evenodd"/><path fill="#047433" d="m167.78477 153.40683l0 0c0 -8.419083 6.825012 -15.244095 15.244095 -15.244095l613.6063 0c4.0429688 0 7.920349 1.6060638 10.779175 4.4648895c2.8588257 2.8588257 4.464905 6.7362213 4.464905 10.779205l0 60.97638c0 8.419067 -6.825012 15.244095 -15.24408 15.244095l-613.6063 0c-8.419083 0 -15.244095 -6.8250275 -15.244095 -15.244095z" fill-rule="evenodd"/><path stroke="#047433" stroke-width="1.0" stroke-linejoin="round" stroke-linecap="butt" d="m167.78477 153.40683l0 0c0 -8.419083 6.825012 -15.244095 15.244095 -15.244095l613.6063 0c4.0429688 0 7.920349 1.6060638 10.779175 4.4648895c2.8588257 2.8588257 4.464905 6.7362213 4.464905 10.779205l0 60.97638c0 8.419067 -6.825012 15.244095 -15.24408 15.244095l-613.6063 0c-8.419083 0 -15.244095 -6.8250275 -15.244095 -15.244095z" fill-rule="evenodd"/><path fill="#047433" d="m167.78477 331.8924l0 0c0 -8.419098 6.825012 -15.24411 15.244095 -15.24411l613.6063 0c4.0429688 0 7.920349 1.6060791 10.779175 4.464905c2.8588257 2.8588257 4.464905 6.736206 4.464905 10.779205l0 60.97638c0 8.419067 -6.825012 15.24408 -15.24408 15.24408l-613.6063 0c-8.419083 0 -15.244095 -6.825012 -15.244095 -15.24408z" fill-rule="evenodd"/><path stroke="#047433" stroke-width="1.0" stroke-linejoin="round" stroke-linecap="butt" d="m167.78477 331.8924l0 0c0 -8.419098 6.825012 -15.24411 15.244095 -15.24411l613.6063 0c4.0429688 0 7.920349 1.6060791 10.779175 4.464905c2.8588257 2.8588257 4.464905 6.736206 4.464905 10.779205l0 60.97638c0 8.419067 -6.825012 15.24408 -15.24408 15.24408l-613.6063 0c-8.419083 0 -15.244095 -6.825012 -15.244095 -15.24408z" fill-rule="evenodd"/><path fill="#047433" d="m167.78477 510.38058l0 0c0 -8.419098 6.825012 -15.24411 15.244095 -15.24411l613.6063 0c4.0429688 0 7.920349 1.6060791 10.779175 4.464905c2.8588257 2.8588257 4.464905 6.736206 4.464905 10.779205l0 60.97635c0 8.419128 -6.825012 15.244141 -15.24408 15.244141l-613.6063 0c-8.419083 0 -15.244095 -6.825012 -15.244095 -15.244141z" fill-rule="evenodd"/><path stroke="#047433" stroke-width="1.0" stroke-linejoin="round" stroke-linecap="butt" d="m167.78477 510.38058l0 0c0 -8.419098 6.825012 -15.24411 15.244095 -15.24411l613.6063 0c4.0429688 0 7.920349 1.6060791 10.779175 4.464905c2.8588257 2.8588257 4.464905 6.736206 4.464905 10.779205l0 60.97635c0 8.419128 -6.825012 15.244141 -15.24408 15.244141l-613.6063 0c-8.419083 0 -15.244095 -6.825012 -15.244095 -15.244141z" fill-rule="evenodd"/></g></svg>