<svg version="1.1" viewBox="0.0 0.0 1000.0 500.0" fill="none" stroke="none" stroke-linecap="square" stroke-miterlimit="10" xmlns:xlink="http://www.w3.org/1999/xlink" xmlns="http://www.w3.org/2000/svg"><clipPath id="p.0"><path d="m0 0l1000.0 0l0 500.0l-1000.0 0l0 -500.0z" clip-rule="nonzero"/></clipPath><g clip-path="url(#p.0)"><path fill="#047433" d="m0 0l1000.0 0l0 500.0l-1000.0 0z" fill-rule="evenodd"/><path fill="#000000" fill-opacity="0.0" d="m190.49344 133.38452l638.48816 0l0 203.05511l-638.48816 0z" fill-rule="evenodd"/><path fill="#ffffff" d="m202.36844 189.10577l5.71875 -0.5q0.40625 3.4375 1.890625 5.640625q1.484375 2.203125 4.609375 3.5625q3.125 1.359375 7.03125 1.359375q3.46875 0 6.125 -1.03125q2.65625 -1.03125 3.953125 -2.828125q1.296875 -1.796875 1.296875 -3.921875q0 -2.15625 -1.25 -3.765625q-1.25 -1.609375 -4.125 -2.703125q-1.84375 -0.71875 -8.15625 -2.234375q-6.3125 -1.515625 -8.84375 -2.859375q-3.28125 -1.71875 -4.890625 -4.265625q-1.609375 -2.546875 -1.609375 -5.703125q0 -3.46875 1.96875 -6.484375q1.96875 -3.015625 5.75 -4.578125q3.78125 -1.5625 8.40625 -1.5625q5.09375 0 8.984375 1.640625q3.890625 1.640625 5.984375 4.828125q2.09375 3.1875 2.25 7.21875l-5.8125 0.4375q-0.46875 -4.34375 -3.171875 -6.5625q-2.703125 -2.21875 -7.984375 -2.21875q-5.5 0 -8.015625 2.015625q-2.515625 2.015625 -2.515625 4.859375q0 2.46875 1.78125 4.0625q1.75 1.59375 9.140625 3.265625q7.390625 1.671875 10.140625 2.921875q4.0 1.84375 5.90625 4.671875q1.90625 2.828125 1.90625 6.515625q0 3.65625 -2.09375 6.890625q-2.09375 3.234375 -6.015625 5.03125q-3.921875 1.796875 -8.828125 1.796875q-6.21875 0 -10.421875 -1.8125q-4.203125 -1.8125 -6.59375 -5.453125q-2.390625 -3.640625 -2.515625 -8.234375zm44.0625 -24.625l0 -6.46875l5.625 0l0 6.46875l-5.625 0zm0 39.34375l0 -33.1875l5.625 0l0 33.1875l-5.625 0zm26.46875 -5.03125l0.8125 4.96875q-2.375 0.5 -4.25 0.5q-3.0625 0 -4.75 -0.96875q-1.6875 -0.96875 -2.375 -2.546875q-0.6875 -1.578125 -0.6875 -6.640625l0 -19.09375l-4.125 0l0 -4.375l4.125 0l0 -8.21875l5.59375 -3.375l0 11.59375l5.65625 0l0 4.375l-5.65625 0l0 19.40625q0 2.40625 0.296875 3.09375q0.296875 0.6875 0.96875 1.09375q0.671875 0.40625 1.921875 0.40625q0.9375 0 2.46875 -0.21875zm28.21875 -5.65625l5.8125 0.71875q-1.375 5.09375 -5.09375 7.90625q-3.71875 2.8125 -9.5 2.8125q-7.28125 0 -11.546875 -4.484375q-4.265625 -4.484375 -4.265625 -12.578125q0 -8.375 4.3125 -13.0q4.3125 -4.625 11.1875 -4.625q6.65625 0 10.875 4.53125q4.21875 4.53125 4.21875 12.75q0 0.5 -0.03125 1.5l-24.75 0q0.3125 5.46875 3.09375 8.375q2.78125 2.90625 6.9375 2.90625q3.09375 0 5.28125 -1.625q2.1875 -1.625 3.46875 -5.1875zm-18.46875 -9.09375l18.53125 0q-0.375 -4.1875 -2.125 -6.28125q-2.6875 -3.25 -6.96875 -3.25q-3.875 0 -6.515625 2.59375q-2.640625 2.59375 -2.921875 6.9375zm79.90625 -26.03125l6.0625 0l0 26.46875q0 6.90625 -1.5625 10.96875q-1.5625 4.0625 -5.640625 6.609375q-4.078125 2.546875 -10.703125 2.546875q-6.4375 0 -10.53125 -2.21875q-4.09375 -2.21875 -5.84375 -6.421875q-1.75 -4.203125 -1.75 -11.484375l0 -26.46875l6.0625 0l0 26.4375q0 5.96875 1.109375 8.796875q1.109375 2.828125 3.8125 4.359375q2.703125 1.53125 6.609375 1.53125q6.6875 0 9.53125 -3.03125q2.84375 -3.03125 2.84375 -11.65625l0 -26.4375zm15.4375 45.8125l0 -33.1875l5.0625 0l0 4.71875q3.65625 -5.46875 10.5625 -5.46875q3.0 0 5.515625 1.078125q2.515625 1.078125 3.765625 2.828125q1.25 1.75 1.75 4.15625q0.3125 1.5625 0.3125 5.46875l0 20.40625l-5.625 0l0 -20.1875q0 -3.4375 -0.65625 -5.140625q-0.65625 -1.703125 -2.328125 -2.71875q-1.671875 -1.015625 -3.921875 -1.015625q-3.59375 0 -6.203125 2.28125q-2.609375 2.28125 -2.609375 8.65625l0 18.125l-5.625 0zm57.125 0l0 -4.1875q-3.15625 4.9375 -9.28125 4.9375q-3.96875 0 -7.296875 -2.1875q-3.328125 -2.1875 -5.15625 -6.109375q-1.828125 -3.921875 -1.828125 -9.015625q0 -4.96875 1.65625 -9.015625q1.65625 -4.046875 4.96875 -6.203125q3.3125 -2.15625 7.40625 -2.15625q3.0 0 5.34375 1.265625q2.34375 1.265625 3.8125 3.296875l0 -16.4375l5.59375 0l0 45.8125l-5.21875 0zm-17.78125 -16.5625q0 6.375 2.6875 9.53125q2.6875 3.15625 6.34375 3.15625q3.6875 0 6.265625 -3.015625q2.578125 -3.015625 2.578125 -9.203125q0 -6.8125 -2.625 -10.0q-2.625 -3.1875 -6.46875 -3.1875q-3.75 0 -6.265625 3.0625q-2.515625 3.0625 -2.515625 9.65625zm54.5625 5.875l5.8125 0.71875q-1.375 5.09375 -5.09375 7.90625q-3.71875 2.8125 -9.5 2.8125q-7.28125 0 -11.546875 -4.484375q-4.265625 -4.484375 -4.265625 -12.578125q0 -8.375 4.3125 -13.0q4.3125 -4.625 11.1875 -4.625q6.65625 0 10.875 4.53125q4.21875 4.53125 4.21875 12.75q0 0.5 -0.03125 1.5l-24.75 0q0.3125 5.46875 3.09375 8.375q2.78125 2.90625 6.9375 2.90625q3.09375 0 5.28125 -1.625q2.1875 -1.625 3.46875 -5.1875zm-18.46875 -9.09375l18.53125 0q-0.375 -4.1875 -2.125 -6.28125q-2.6875 -3.25 -6.96875 -3.25q-3.875 0 -6.515625 2.59375q-2.640625 2.59375 -2.921875 6.9375zm31.28125 19.78125l0 -33.1875l5.0625 0l0 5.03125q1.9375 -3.53125 3.578125 -4.65625q1.640625 -1.125 3.609375 -1.125q2.84375 0 5.78125 1.8125l-1.9375 5.21875q-2.0625 -1.21875 -4.125 -1.21875q-1.84375 0 -3.3125 1.109375q-1.46875 1.109375 -2.09375 3.078125q-0.9375 3.0 -0.9375 6.5625l0 17.375l-5.625 0z" fill-rule="nonzero"/><path fill="#ffffff" d="m237.11844 264.76202l6.0625 1.53125q-1.90625 7.46875 -6.859375 11.390625q-4.953125 3.921875 -12.109375 3.921875q-7.40625 0 -12.046875 -3.015625q-4.640625 -3.015625 -7.0625 -8.734375q-2.421875 -5.71875 -2.421875 -12.28125q0 -7.15625 2.734375 -12.484375q2.734375 -5.328125 7.78125 -8.09375q5.046875 -2.765625 11.109375 -2.765625q6.875 0 11.5625 3.5q4.6875 3.5 6.53125 9.84375l-5.96875 1.40625q-1.59375 -5.0 -4.625 -7.28125q-3.03125 -2.28125 -7.625 -2.28125q-5.28125 0 -8.828125 2.53125q-3.546875 2.53125 -4.984375 6.796875q-1.4375 4.265625 -1.4375 8.796875q0 5.84375 1.703125 10.203125q1.703125 4.359375 5.296875 6.515625q3.59375 2.15625 7.78125 2.15625q5.09375 0 8.625 -2.9375q3.53125 -2.9375 4.78125 -8.71875zm10.71875 -0.53125q0 -9.21875 5.125 -13.65625q4.28125 -3.6875 10.4375 -3.6875q6.84375 0 11.1875 4.484375q4.34375 4.484375 4.34375 12.390625q0 6.40625 -1.921875 10.078125q-1.921875 3.671875 -5.59375 5.703125q-3.671875 2.03125 -8.015625 2.03125q-6.96875 0 -11.265625 -4.46875q-4.296875 -4.46875 -4.296875 -12.875zm5.78125 0q0 6.375 2.78125 9.546875q2.78125 3.171875 7.0 3.171875q4.1875 0 6.96875 -3.1875q2.78125 -3.1875 2.78125 -9.71875q0 -6.15625 -2.796875 -9.328125q-2.796875 -3.171875 -6.953125 -3.171875q-4.21875 0 -7.0 3.15625q-2.78125 3.15625 -2.78125 9.53125zm31.90625 16.59375l0 -33.1875l5.0625 0l0 4.71875q3.65625 -5.46875 10.5625 -5.46875q3.0 0 5.515625 1.078125q2.515625 1.078125 3.765625 2.828125q1.25 1.75 1.75 4.15625q0.3125 1.5625 0.3125 5.46875l0 20.40625l-5.625 0l0 -20.1875q0 -3.4375 -0.65625 -5.140625q-0.65625 -1.703125 -2.328125 -2.71875q-1.671875 -1.015625 -3.921875 -1.015625q-3.59375 0 -6.203125 2.28125q-2.609375 2.28125 -2.609375 8.65625l0 18.125l-5.625 0zm33.34375 -9.90625l5.5625 -0.875q0.46875 3.34375 2.609375 5.125q2.140625 1.78125 5.984375 1.78125q3.875 0 5.75 -1.578125q1.875 -1.578125 1.875 -3.703125q0 -1.90625 -1.65625 -3.0q-1.15625 -0.75 -5.75 -1.90625q-6.1875 -1.5625 -8.578125 -2.703125q-2.390625 -1.140625 -3.625 -3.15625q-1.234375 -2.015625 -1.234375 -4.453125q0 -2.21875 1.015625 -4.109375q1.015625 -1.890625 2.765625 -3.140625q1.3125 -0.96875 3.578125 -1.640625q2.265625 -0.671875 4.859375 -0.671875q3.90625 0 6.859375 1.125q2.953125 1.125 4.359375 3.046875q1.40625 1.921875 1.9375 5.140625l-5.5 0.75q-0.375 -2.5625 -2.171875 -4.0q-1.796875 -1.4375 -5.078125 -1.4375q-3.875 0 -5.53125 1.28125q-1.65625 1.28125 -1.65625 3.0q0 1.09375 0.6875 1.96875q0.6875 0.90625 2.15625 1.5q0.84375 0.3125 4.96875 1.4375q5.96875 1.59375 8.328125 2.609375q2.359375 1.015625 3.703125 2.953125q1.34375 1.9375 1.34375 4.8125q0 2.8125 -1.640625 5.296875q-1.640625 2.484375 -4.734375 3.84375q-3.09375 1.359375 -7.0 1.359375q-6.46875 0 -9.859375 -2.6875q-3.390625 -2.6875 -4.328125 -7.96875zm46.53125 4.875l0.8125 4.96875q-2.375 0.5 -4.25 0.5q-3.0625 0 -4.75 -0.96875q-1.6875 -0.96875 -2.375 -2.546875q-0.6875 -1.578125 -0.6875 -6.640625l0 -19.09375l-4.125 0l0 -4.375l4.125 0l0 -8.21875l5.59375 -3.375l0 11.59375l5.65625 0l0 4.375l-5.65625 0l0 19.40625q0 2.40625 0.296875 3.09375q0.296875 0.6875 0.96875 1.09375q0.671875 0.40625 1.921875 0.40625q0.9375 0 2.46875 -0.21875zm5.4375 5.03125l0 -33.1875l5.0625 0l0 5.03125q1.9375 -3.53125 3.578125 -4.65625q1.640625 -1.125 3.609375 -1.125q2.84375 0 5.78125 1.8125l-1.9375 5.21875q-2.0625 -1.21875 -4.125 -1.21875q-1.84375 0 -3.3125 1.109375q-1.46875 1.109375 -2.09375 3.078125q-0.9375 3.0 -0.9375 6.5625l0 17.375l-5.625 0zm43.125 0l0 -4.875q-3.875 5.625 -10.53125 5.625q-2.9375 0 -5.484375 -1.125q-2.546875 -1.125 -3.78125 -2.828125q-1.234375 -1.703125 -1.734375 -4.171875q-0.34375 -1.65625 -0.34375 -5.25l0 -20.5625l5.625 0l0 18.40625q0 4.40625 0.34375 5.9375q0.53125 2.21875 2.25 3.484375q1.71875 1.265625 4.25 1.265625q2.53125 0 4.75 -1.296875q2.21875 -1.296875 3.140625 -3.53125q0.921875 -2.234375 0.921875 -6.484375l0 -17.78125l5.625 0l0 33.1875l-5.03125 0zm35.5 -12.15625l5.53125 0.71875q-0.90625 5.71875 -4.640625 8.953125q-3.734375 3.234375 -9.171875 3.234375q-6.8125 0 -10.953125 -4.453125q-4.140625 -4.453125 -4.140625 -12.765625q0 -5.375 1.78125 -9.40625q1.78125 -4.03125 5.421875 -6.046875q3.640625 -2.015625 7.921875 -2.015625q5.40625 0 8.84375 2.734375q3.4375 2.734375 4.40625 7.765625l-5.46875 0.84375q-0.78125 -3.34375 -2.765625 -5.03125q-1.984375 -1.6875 -4.796875 -1.6875q-4.25 0 -6.90625 3.046875q-2.65625 3.046875 -2.65625 9.640625q0 6.6875 2.5625 9.71875q2.5625 3.03125 6.6875 3.03125q3.3125 0 5.53125 -2.03125q2.21875 -2.03125 2.8125 -6.25zm22.625 7.125l0.8125 4.96875q-2.375 0.5 -4.25 0.5q-3.0625 0 -4.75 -0.96875q-1.6875 -0.96875 -2.375 -2.546875q-0.6875 -1.578125 -0.6875 -6.640625l0 -19.09375l-4.125 0l0 -4.375l4.125 0l0 -8.21875l5.59375 -3.375l0 11.59375l5.65625 0l0 4.375l-5.65625 0l0 19.40625q0 2.40625 0.296875 3.09375q0.296875 0.6875 0.96875 1.09375q0.671875 0.40625 1.921875 0.40625q0.9375 0 2.46875 -0.21875zm5.53125 -34.3125l0 -6.46875l5.625 0l0 6.46875l-5.625 0zm0 39.34375l0 -33.1875l5.625 0l0 33.1875l-5.625 0zm12.09375 -16.59375q0 -9.21875 5.125 -13.65625q4.28125 -3.6875 10.4375 -3.6875q6.8437195 0 11.1874695 4.484375q4.34375 4.484375 4.34375 12.390625q0 6.40625 -1.921875 10.078125q-1.921875 3.671875 -5.59375 5.703125q-3.6718445 2.03125 -8.0155945 2.03125q-6.96875 0 -11.265625 -4.46875q-4.296875 -4.46875 -4.296875 -12.875zm5.78125 0q0 6.375 2.78125 9.546875q2.78125 3.171875 7.0 3.171875q4.1875 0 6.9687195 -3.1875q2.78125 -3.1875 2.78125 -9.71875q0 -6.15625 -2.796875 -9.328125q-2.7968445 -3.171875 -6.9530945 -3.171875q-4.21875 0 -7.0 3.15625q-2.78125 3.15625 -2.78125 9.53125zm31.90622 16.59375l0 -33.1875l5.0625 0l0 4.71875q3.65625 -5.46875 10.5625 -5.46875q3.0 0 5.515625 1.078125q2.515625 1.078125 3.765625 2.828125q1.25 1.75 1.75 4.15625q0.3125 1.5625 0.3125 5.46875l0 20.40625l-5.625 0l0 -20.1875q0 -3.4375 -0.65625 -5.140625q-0.65625 -1.703125 -2.328125 -2.71875q-1.671875 -1.015625 -3.921875 -1.015625q-3.59375 0 -6.203125 2.28125q-2.609375 2.28125 -2.609375 8.65625l0 18.125l-5.625 0zm37.1875 0l0 -6.40625l6.40625 0l0 6.40625l-6.40625 0zm17.78125 0l0 -6.40625l6.40625 0l0 6.40625l-6.40625 0zm17.78125 0l0 -6.40625l6.40625 0l0 6.40625l-6.40625 0z" fill-rule="nonzero"/></g></svg>